<svg width="200" height="39" fill="none" xmlns="http://www.w3.org/2000/svg"><path d="M25.43 28.639h-6.986c-2.804 0-8.116-1.697-8.116-8.115s5.312-8.115 8.116-8.115h6.986l-.863 2.95H18.79c-.524.008-5.164.193-5.164 5.165 0 5.017 4.633 5.164 5.164 5.164h5.777l.863 2.951zm144.847 0h-6.987c-2.803 0-8.115-1.697-8.115-8.115s5.312-8.115 8.115-8.115h6.987l-.863 2.95h-5.777c-.524.008-5.164.193-5.164 5.165 0 5.017 4.633 5.164 5.164 5.164h5.777l.863 2.951zM95.78 12.409h4.427a4.804 4.804 0 014.795 4.795c0 2.641-2.501 4.795-5.142 4.795h-8.742c.811 3.571 4.537 3.69 5.009 3.69h6.89l.863 2.95h-8.1c-2.803 0-8.115-1.697-8.115-8.115s5.304-8.115 8.115-8.115zm4.08 6.64a1.845 1.845 0 000-3.69h-3.733c-.465.008-4.19.156-5.01 3.69h8.743zm-62.243-6.64h-2.014c-2.803 0-8.115 1.697-8.115 8.115s5.312 8.115 8.115 8.115h2.014c2.803 0 8.115-1.697 8.115-8.115s-5.312-8.115-8.115-8.115zm-.354 13.28H35.95c-.524 0-5.165-.141-5.165-5.165 0-4.965 4.64-5.157 5.165-5.164h1.32c.524 0 5.164.147 5.164 5.164 0 4.965-4.633 5.157-5.171 5.164zm29.141 2.95h-3.298v-8.115c0-5.017-4.633-5.164-5.164-5.164h-4.817v13.279h-3.298v-16.23h8.462c2.803 0 8.115 1.697 8.115 8.115v8.115zm59.439 0h-3.298v-8.115c0-5.017-4.633-5.164-5.164-5.164h-4.817v13.279h-3.298v-16.23h8.462c2.803 0 8.115 1.697 8.115 8.115v8.115zm12.563-2.951c-.531 0-5.164-.147-5.164-5.164v-.738h8.13l.863-2.95h-8.985v-4.427h-3.298v8.115c0 6.418 5.312 8.115 8.115 8.115h6.986l-.863-2.95h-5.784zm-59.439 0c-.531 0-5.164-.147-5.164-5.164v-.738h8.13l.863-2.95H73.81v-4.427h-3.297v8.115c0 6.418 5.311 8.115 8.115 8.115h6.986l-.863-2.95h-5.784zm72.107-13.279h-3.298v16.23h3.298v-16.23z" fill="#fff"/><path d="M145.851 2.862c-.015.067-.023.126-.037.192a3.535 3.535 0 00-.067.627c0 .244.022.48.074.701a3.673 3.673 0 007.215 0c.044-.229.067-.457.074-.7v-.008c0-.214-.022-.42-.066-.627-.015-.067-.023-.126-.037-.192a2.832 2.832 0 00-.141-.443A3.66 3.66 0 00149.429 0a3.666 3.666 0 00-3.438 2.412 3.07 3.07 0 00-.14.45z" fill="#FF4848"/><path d="M181.557 2.08h-25.703c.126.51.199 1.048.199 1.594 0 .465-.051.922-.14 1.357h25.636c7.511 0 15.493 5.43 15.493 15.493s-7.982 15.492-15.493 15.492H18.436c-7.51 0-15.492-5.43-15.492-15.492 0-10.063 7.982-15.493 15.492-15.493h124.5a6.87 6.87 0 01-.14-1.357c0-.553.074-1.085.199-1.594H18.443C9.502 2.08 0 8.543 0 20.524c0 11.98 9.502 18.443 18.443 18.443h163.114c8.941 0 18.443-6.462 18.443-18.443 0-11.981-9.502-18.444-18.443-18.444z" fill="#FF4848"/><path d="M181.557 12.409h-6.986l.863 2.95h5.777c.472 0 4.197.119 5.009 3.69h-8.742c-2.641 0-5.142 2.154-5.142 4.795a4.804 4.804 0 004.795 4.795h4.426c1.284 0 3.084-.361 4.663-1.357v.007l.649 1.335h2.803v-8.1c0-6.418-5.311-8.115-8.115-8.115zm-.346 13.28h-3.733a1.846 1.846 0 010-3.689h8.735c-.812 3.533-4.538 3.68-5.002 3.688z" fill="#fff"/></svg>